<svg xmlns="http://www.w3.org/2000/svg" width="70.268" height="31.157" viewBox="0 0 70.268 31.157">
  <g id="Group_10" data-name="Group 10" transform="translate(110.576 165.283)">
    <path id="Path_1" data-name="Path 1" d="M210.861,326.69V328.7h-.6V323.9h.69a2.875,2.875,0,0,1,1.344.248,1.194,1.194,0,0,1,.593,1.144,1.26,1.26,0,0,1-.5,1.083,1.984,1.984,0,0,1-1.188.319Zm0-2.258v1.723h.19c.851,0,1.275-.3,1.275-.88s-.435-.843-1.318-.843Z" transform="translate(-304.994 -462.932)"/>
    <path id="Path_2" data-name="Path 2" d="M233.619,326.952h-2.206l-.548,1.2h-.646l2.3-5.007,2.3,5.007h-.646Zm-.248-.548-.856-1.945-.854,1.945Z" transform="translate(-319.694 -462.386)"/>
    <path id="Path_3" data-name="Path 3" d="M260.563,326.609l1.518,2.09h-.727l-1.415-2.032h-.25V328.7h-.6v-4.806h.727a2.659,2.659,0,0,1,1.268.224,1.174,1.174,0,0,1,.466.482,1.433,1.433,0,0,1-.153,1.57,1.262,1.262,0,0,1-.835.44m-.875-2.182v1.742h.192c.849,0,1.275-.293,1.275-.88s-.437-.862-1.318-.862Z" transform="translate(-340.956 -462.927)"/>
    <path id="Path_4" data-name="Path 4" d="M134.317,100.068h-1.729v1.352h1.671v.548h-1.671v2.361h-.6V99.52h2.327Z" transform="translate(-207.785 -238.555)"/>
    <path id="Path_5" data-name="Path 5" d="M303.215,323.91h.6v2.838q0,1.51,1.162,1.51t1.159-1.51V323.91h.6v3.041a1.9,1.9,0,0,1-.466,1.333,1.845,1.845,0,0,1-2.588,0,1.9,1.9,0,0,1-.466-1.333Z" transform="translate(-373.452 -462.945)"/>
    <path id="Path_6" data-name="Path 6" d="M180.713,103.862l-1.441-3.275h-.013l-.559,3.175h-.619l.98-5.012,1.652,3.787,1.652-3.787.98,5.012h-.617l-.561-3.175h-.013Z" transform="translate(-241.73 -237.988)"/>
    <path id="Path_7" data-name="Path 7" d="M2.4,1.55V18.586H8.237v2.192H0V1.55Z" transform="translate(-110.576 -166.402)"/>
    <path id="Path_8" data-name="Path 8" d="M289.547,236.753l6.061,8.364h-2.9l-5.658-8.145h-1v8.135h-2.4V225.87h2.9a10.726,10.726,0,0,1,5.075.893,4.743,4.743,0,0,1,1.86,1.924,5.55,5.55,0,0,1,.664,2.667,5.412,5.412,0,0,1-1.275,3.621,5.023,5.023,0,0,1-3.336,1.779m-3.494-8.722v6.962h.764q5.1,0,5.1-3.521,0-3.441-5.228-3.441Z" transform="translate(-359.052 -390.74)"/>
    <path id="Path_9" data-name="Path 9" d="M382.4,227.232l-1.913,1.149a3.391,3.391,0,0,0-3.086-1.81,3.426,3.426,0,0,0-2.169.738,2.408,2.408,0,0,0-1.054,1.99q0,1.713,2.677,2.754l1.378.527a9.315,9.315,0,0,1,3.426,2.09,5.207,5.207,0,0,1,1.352,3.689,5.71,5.71,0,0,1-1.76,4.3,6.061,6.061,0,0,1-4.387,1.7,5.676,5.676,0,0,1-3.99-1.518,6.177,6.177,0,0,1-1.95-3.863l2.424-.511a3.352,3.352,0,0,0,1.054,2.614,3.705,3.705,0,0,0,2.664,1.033,3.3,3.3,0,0,0,2.538-1.1,3.778,3.778,0,0,0,1.009-2.651,3.041,3.041,0,0,0-1.054-2.348,8.632,8.632,0,0,0-2.271-1.3l-1.318-.559q-4.182-1.763-4.182-4.872a4.535,4.535,0,0,1,1.734-3.671,6.1,6.1,0,0,1,3.926-1.3,5.327,5.327,0,0,1,4.949,2.9" transform="translate(-423.318 -389.585)"/>
    <path id="Path_10" data-name="Path 10" d="M192.725,234.381a7.61,7.61,0,0,1,2.192-5.534,7.852,7.852,0,0,1,10.978-.011,7.619,7.619,0,0,1,2.182,5.534v.119h2.4v-.119a9.613,9.613,0,0,0-2.959-7.089,10.1,10.1,0,0,0-14.23,0,9.613,9.613,0,0,0-2.959,7.089v.119h2.4v-.119" transform="translate(-290.312 -389.619)"/>
    <path id="Path_11" data-name="Path 11" d="M206.644,274.648a7.631,7.631,0,0,1-12.733-3.088h-2.5a9.45,9.45,0,0,0,2.619,4.743,9.682,9.682,0,0,0,7.168,2.883,9.838,9.838,0,0,0,7.165-2.883,9.449,9.449,0,0,0,2.619-4.743h-2.5a7.594,7.594,0,0,1-1.845,3.088" transform="translate(-291.111 -424.39)"/>
    <rect id="Rectangle_2" data-name="Rectangle 2" width="2.398" height="9.776" transform="translate(-59.494 -164.852)"/>
    <rect id="Rectangle_3" data-name="Rectangle 3" width="2.398" height="7.162" transform="translate(-59.494 -152.785)"/>
  </g>
</svg>
