<svg xmlns="http://www.w3.org/2000/svg" width="22.611" height="22.611" viewBox="0 0 22.611 22.611">
  <path id="Path_957" data-name="Path 957" d="M12.675.568a1.363,1.363,0,0,0-1.931,0l-1,1.006L8.429,1.029a1.363,1.363,0,0,0-1.784.739L6.1,3.082l-1.421,0A1.363,1.363,0,0,0,3.316,4.445l0,1.421L2,6.408a1.363,1.363,0,0,0-.739,1.784L1.811,9.5l-1.006,1a1.363,1.363,0,0,0,0,1.931l1.006,1-.546,1.312A1.363,1.363,0,0,0,2,16.538l1.314.542,0,1.421a1.363,1.363,0,0,0,1.366,1.366l1.421,0,.542,1.314a1.363,1.363,0,0,0,1.784.739l1.312-.546,1,1.006a1.364,1.364,0,0,0,1.931,0l1-1.006,1.312.546a1.363,1.363,0,0,0,1.784-.739l.542-1.314,1.421,0A1.363,1.363,0,0,0,20.1,18.5l0-1.421,1.314-.542a1.363,1.363,0,0,0,.739-1.784l-.546-1.312,1.006-1a1.364,1.364,0,0,0,0-1.931l-1.006-1,.546-1.312a1.363,1.363,0,0,0-.739-1.784L20.1,5.866l0-1.421A1.363,1.363,0,0,0,18.737,3.08l-1.421,0-.542-1.314a1.363,1.363,0,0,0-1.784-.739l-1.312.546Zm-.966.963L12.874,2.7a1.023,1.023,0,0,0,1.117.222l1.523-.634.629,1.525a1.023,1.023,0,0,0,.947.633l1.65,0,0,1.65a1.023,1.023,0,0,0,.633.947l1.525.629-.634,1.523a1.023,1.023,0,0,0,.222,1.117l1.168,1.165-1.168,1.165a1.023,1.023,0,0,0-.222,1.117l.634,1.523-1.525.629a1.023,1.023,0,0,0-.633.947l0,1.65-1.65,0a1.023,1.023,0,0,0-.947.633l-.629,1.525-1.523-.634a1.023,1.023,0,0,0-1.117.222L11.71,21.415l-1.165-1.168a1.023,1.023,0,0,0-1.117-.222L7.9,20.658l-.629-1.525a1.023,1.023,0,0,0-.947-.633l-1.65,0,0-1.65a1.023,1.023,0,0,0-.633-.947l-1.525-.629.634-1.523a1.023,1.023,0,0,0-.222-1.117L1.768,11.473l1.168-1.165a1.023,1.023,0,0,0,.222-1.117L2.524,7.668l1.525-.629a1.023,1.023,0,0,0,.633-.947l0-1.65,1.65,0a1.023,1.023,0,0,0,.947-.633L7.9,2.288l1.523.634A1.023,1.023,0,0,0,10.545,2.7ZM8.034,10.9a2.2,2.2,0,0,0,2.193,0,2.167,2.167,0,0,0,.787-.826,2.247,2.247,0,0,0,.3-1.133,2.244,2.244,0,0,0-1.1-1.933A2,2,0,0,0,9.13,6.7a2.067,2.067,0,0,0-1.1.307,2.244,2.244,0,0,0-1.1,1.933,2.288,2.288,0,0,0,1.1,1.959Zm.335,5.105q0,.133.168.133h1.29a.235.235,0,0,0,.232-.133l4.811-8.958a.244.244,0,0,0,.039-.12.086.086,0,0,0-.052-.08.154.154,0,0,0-.116-.04h-1.29a.235.235,0,0,0-.232.133L8.395,15.9A.2.2,0,0,0,8.369,16.005Zm1.3-6.478a.7.7,0,0,1-.542.24.759.759,0,0,1-.567-.24.838.838,0,0,1-.219-.586.767.767,0,0,1,.232-.573.745.745,0,0,1,.555-.24.7.7,0,0,1,.542.24A.8.8,0,0,1,9.9,8.94.812.812,0,0,1,9.672,9.527Zm3.534,6.425a2.2,2.2,0,0,0,2.193,0,2.167,2.167,0,0,0,.787-.826,2.247,2.247,0,0,0,.3-1.133,2.244,2.244,0,0,0-1.1-1.933,2,2,0,0,0-1.083-.307,2.067,2.067,0,0,0-1.1.307,2.244,2.244,0,0,0-1.1,1.933,2.288,2.288,0,0,0,1.1,1.959Zm1.638-1.373a.7.7,0,0,1-.542.24.759.759,0,0,1-.567-.24.838.838,0,0,1-.219-.587.767.767,0,0,1,.232-.573.745.745,0,0,1,.555-.24.7.7,0,0,1,.542.24.8.8,0,0,1,.232.573A.812.812,0,0,1,14.844,14.579Z" transform="translate(-0.404 -0.168)" fill="#747474" fill-rule="evenodd"/>
</svg>
