<svg xmlns="http://www.w3.org/2000/svg" width="17.991" height="18.95" viewBox="0 0 17.991 18.95">
  <path id="Path_960" data-name="Path 960" d="M6.31,4.462a3.008,3.008,0,0,1,6.016,0v.15H6.31Zm-1.2.15v-.15a4.211,4.211,0,1,1,8.422,0v.15H17.11a1.2,1.2,0,0,1,1.2,1.258l-.561,12.182a1.2,1.2,0,0,1-1.2,1.148H2.087a1.2,1.2,0,0,1-1.2-1.148L.324,5.871a1.2,1.2,0,0,1,1.2-1.258ZM2.087,18,1.526,5.816H17.11L16.55,18ZM6.31,7.47a.6.6,0,1,1-.6-.6A.6.6,0,0,1,6.31,7.47Zm6.617.6a.6.6,0,1,0-.6-.6A.6.6,0,0,0,12.928,8.072Z" transform="translate(-0.323 -0.251)" fill="#747474" fill-rule="evenodd"/>
</svg>
