<svg xmlns="http://www.w3.org/2000/svg" viewBox="0 0 48.06 44.91"><title>Varlık 1</title><path d="M20.46,44.91c-1.11-1.76-2.28-3.53-3.35-5.37a1.51,1.51,0,0,0-1.81-.83c-5.18.68-9.92-.28-13.16-4.79C-.61,30.1-.54,25.86,1.38,21.69c2.24-4.84,6.09-7.21,11.44-7.1a7.72,7.72,0,0,0,.79,0,32.15,32.15,0,0,1,0-3.81,11.45,11.45,0,0,1,5.47-8.65c3.45-2.07,7.34-2.93,11.31-1,2,1,3.13,2.76,4.28,4.52.37.57.65,1.21,1,1.92a7.73,7.73,0,0,1,7,.44A10,10,0,0,1,47.16,13c2.5,5.73-.58,9.53-4.73,13l1.36,2.29c-1.08.05-2,.11-2.92.12a.76.76,0,0,1-.52-.3c-.8-1.24-1.58-2.49-2.39-3.78,1-.47,2-.85,2.91-1.34,4.41-2.39,4.24-8.68.34-11.44a5.13,5.13,0,0,0-6-.08c-.78.52-1.44,1.21-2.19,1.78s-1.3.84-1.95.17-.18-1.27.26-1.83c.27-.34.56-.67.82-1,1.08-1.39,1.06-1.38.2-2.89C29.63,2.91,22.76,2.54,19,7.23a11,11,0,0,0-2.19,6.93c0,.94.62,1,1.18,1.29,1.33.62,1.76,1.5,1.23,2.56a1.13,1.13,0,0,1-1.7.6A10.07,10.07,0,0,0,5.83,20.84C1,26,3.65,34.32,10.49,35.47a17.65,17.65,0,0,0,2.9.25,4.25,4.25,0,0,0,3.81-1.93,21.22,21.22,0,0,1,10.68-7.7,11.6,11.6,0,0,1,4-.31,5.66,5.66,0,0,1,1.89.82l-.06.3c-.81.26-1.62.51-2.42.8a24.27,24.27,0,0,0-10.46,7C19,36.87,19,37,20.46,39.36,22,42,22,42,20.68,44.86,20.67,44.88,20.62,44.88,20.46,44.91Z" fill="#fff"/></svg>