<svg xmlns="http://www.w3.org/2000/svg" width="22.412" height="21.594" viewBox="0 0 22.412 21.594">
  <path id="Path_956" data-name="Path 956" d="M12.475,1.146a1.318,1.318,0,0,0-1.562,0L.891,8.515a.989.989,0,0,0-.4.8v2.3a.989.989,0,0,0,.989.989h.518v8.9a.989.989,0,0,0,.989.989H20.4a.989.989,0,0,0,.989-.989V12.6h.518a.989.989,0,0,0,.989-.989v-2.3a.989.989,0,0,0-.4-.8Zm1.891,20.02H9.023v-7.91h5.343ZM11.694,2.209l9.888,7.27v1.8h-.763L12.1,4.5l-.4-.309-.4.3-9.053,6.79H1.806v-1.8ZM3.313,12.126l8.374-6.28,8.388,6.524v8.8H15.684v-8.24a.989.989,0,0,0-.989-.989h-6a.989.989,0,0,0-.989.989v8.24H3.313Zm10.4,4.316a.673.673,0,1,0-1.346,0v1.346a.673.673,0,0,0,1.346,0Z" transform="translate(-0.488 -0.89)" fill="#ca1715" fill-rule="evenodd"/>
</svg>
