<svg xmlns="http://www.w3.org/2000/svg" width="22.355" height="21.594" viewBox="0 0 22.355 21.594">
  <path id="Path_958" data-name="Path 958" d="M9.78,1.917a4.1,4.1,0,0,1,4.142.037c.731.423.941,1.222.941,2.524v.07a3.811,3.811,0,0,1-2.334-.788l-.373-.254-.36.272-1.06.8a3.255,3.255,0,0,1-1.129-.408,2.79,2.79,0,0,1-.712-.711A1.938,1.938,0,0,1,9.78,1.917Zm2.425,3.13a4.836,4.836,0,0,0,2.658.762V8.021a3.427,3.427,0,0,1-.914,2.252,2.86,2.86,0,0,1-2.079,1,2.929,2.929,0,0,1-2.106-1.007,3.4,3.4,0,0,1-.933-2.248V5.167l.09.061a4.961,4.961,0,0,0,1.852.642l.273.051.222-.167ZM7.572,4.478c0-.222.005-.45.021-.68v0h0A3.421,3.421,0,0,1,9.149.827a5.356,5.356,0,0,1,5.4.037c1.387.8,1.57,2.293,1.57,3.614V5.73a1.261,1.261,0,0,1,.861,1.2v.56A1.261,1.261,0,0,1,16.068,8.7a4.791,4.791,0,0,1-1.186,2.423q-.076.083-.156.163v1.2l4.887,1.477a4.411,4.411,0,0,1,3.1,3.687l.323,2.648a1.26,1.26,0,0,1-1.251,1.413H1.953A1.26,1.26,0,0,1,.7,20.295l.322-2.64a4.411,4.411,0,0,1,3.114-3.691l4.832-1.445V11.261q-.067-.067-.131-.136A4.775,4.775,0,0,1,7.626,8.684a1.261,1.261,0,0,1-.87-1.2v-.56a1.261,1.261,0,0,1,.816-1.18Zm2.659,8.275v-.6a3.816,3.816,0,0,0,1.64.379,3.765,3.765,0,0,0,1.6-.361v.542a.945.945,0,0,0,.672.9l.257.078q-.078.077-.164.154a3.585,3.585,0,0,1-2.388,1.012,3.538,3.538,0,0,1-2.351-1.016q-.072-.065-.138-.131l.2-.061A.945.945,0,0,0,10.231,12.753ZM8.012,14.12,4.5,15.171a3.15,3.15,0,0,0-2.224,2.636l-.322,2.64H4.679V18.382a.63.63,0,1,1,1.26,0v2.065H17.8V18.382a.63.63,0,0,1,1.26,0v2.065h2.726L21.464,17.8a3.15,3.15,0,0,0-2.216-2.634L15.735,14.1a6.816,6.816,0,0,1-.663.687,4.839,4.839,0,0,1-3.235,1.335,4.791,4.791,0,0,1-3.2-1.345A6.7,6.7,0,0,1,8.012,14.12Z" transform="translate(-0.693 -0.113)" fill="#747474" fill-rule="evenodd"/>
</svg>
